PathFileType	4	(X/Y/Z)	RBDS023static.trc
DataRate	CameraRate	NumFrames	NumMarkers	Units	OrigDataRate	OrigDataStartFrame	OrigNumFrames
150.000000	150.000000	4	48	mm	150.000000	112	150
Frame#	Time	L.Ankle			L.Ankle.Medial			L.ASIS			L.GTR			L.Heel.Bottom			L.Heel.Lateral			L.Heel.Top			L.HF			L.Iliac.Crest			L.Knee			L.Knee.Medial			L.MT1			L.MT2			L.MT5			L.PSIS			L.Shank.Bottom.Lateral			L.Shank.Bottom.Medial			L.Shank.Top.Lateral			L.Shank.Top.Medial			L.Thigh.Bottom.Lateral			L.Thigh.Bottom.Medial			L.Thigh.Top.Lateral			L.Thigh.Top.Medial			L.TT			R.Ankle			R.Ankle.Medial			R.ASIS			R.GTR			R.Heel.Bottom			R.Heel.Lateral			R.Heel.Top			R.HF			R.Iliac.Crest			R.Knee			R.Knee.Medial			R.MT1			R.MT2			R.MT5			R.PSIS			R.Shank.Bottom.Lateral			R.Shank.Bottom.Medial			R.Shank.Top.Lateral			R.Shank.Top.Medial			R.Thigh.Bottom.Lateral			R.Thigh.Bottom.Medial			R.Thigh.Top.Lateral			R.Thigh.Top.Medial			R.TT			
		X1	Y1	Z1	X2	Y2	Z2	X3	Y3	Z3	X4	Y4	Z4	X5	Y5	Z5	X6	Y6	Z6	X7	Y7	Z7	X8	Y8	Z8	X9	Y9	Z9	X10	Y10	Z10	X11	Y11	Z11	X12	Y12	Z12	X13	Y13	Z13	X14	Y14	Z14	X15	Y15	Z15	X16	Y16	Z16	X17	Y17	Z17	X18	Y18	Z18	X19	Y19	Z19	X20	Y20	Z20	X21	Y21	Z21	X22	Y22	Z22	X23	Y23	Z23	X24	Y24	Z24	X25	Y25	Z25	X26	Y26	Z26	X27	Y27	Z27	X28	Y28	Z28	X29	Y29	Z29	X30	Y30	Z30	X31	Y31	Z31	X32	Y32	Z32	X33	Y33	Z33	X34	Y34	Z34	X35	Y35	Z35	X36	Y36	Z36	X37	Y37	Z37	X38	Y38	Z38	X39	Y39	Z39	X40	Y40	Z40	X41	Y41	Z41	X42	Y42	Z42	X43	Y43	Z43	X44	Y44	Z44	X45	Y45	Z45	X46	Y46	Z46	X47	Y47	Z47	X48	Y48	Z48	

113	0.7466666666666667	708.8560791015625	102.7079162597656	1034.647338867188	735.025390625	121.8935089111328	1117.504760742188	832.4759521484375	1063.750732421875	1125.650512695313	767.7376098632813	977.0778198242188	1062.93798828125	639.4366455078125	41.34740829467773	1077.949584960938	668.773681640625	61.47942733764648	1039.505981445313	649.9209594726563	87.69982147216797	1080.15869140625	713.0808715820313	481.4765625	1033.887329101563	751.02294921875	1125.878295898438	1073.402465820313	725.5253295898438	553.1325073242188	1046.310180664063	716.9854125976563	529.2401123046875	1164.325805664063	860.6890258789063	53.49619293212891	1126.3271484375	872.4920043945313	69.5567626953125	1082.89013671875	834.9263916015625	45.14127349853516	1010.446838378906	648.0791015625	1079.961059570313	1173.83251953125	714.5056762695313	178.8297576904297	1030.432250976563	672.1801147460938	171.4976196289063	1058.252807617188	697.751220703125	257.9760437011719	1019.478759765625	655.5118408203125	254.8254852294922	1050.58154296875	735.7903442382813	713.058349609375	1031.423095703125	674.8411865234375	714.150146484375	1069.335693359375	735.2711791992188	823.3804931640625	1033.753173828125	680.0032958984375	824.3546142578125	1073.696044921875	772.1053466796875	462.7962951660156	1081.505981445313	698.585693359375	105.084587097168	1420.07421875	731.3971557617188	123.1335525512695	1339.9521484375	827.2063598632813	1067.979125976563	1341.247802734375	747.9122314453125	970.442626953125	1402.787231445313	632.3560791015625	40.75687026977539	1373.807739257813	662.1693115234375	58.53329086303711	1416.9287109375	642.577880859375	87.94416046142578	1373.406372070313	726.1204833984375	492.9707336425781	1416.47021484375	740.726806640625	1139.844604492188	1379.990844726563	727.9678344726563	558.9204711914063	1409.751953125	742.4633178710938	538.767333984375	1291.60498046875	854.3419189453125	53.79409408569336	1331.439453125	863.0033569335938	70.99851989746094	1376.099609375	829.047607421875	47.39844512939453	1447.170043945313	645.6239013671875	1086.17431640625	1282.546630859375	708.4867553710938	185.682861328125	1426.29833984375	662.3428955078125	184.8582305908203	1395.233032226563	698.353271484375	265.661865234375	1437.260864257813	653.9375610351563	264.1942138671875	1406.233276367188	716.8245239257813	681.4492797851563	1418.215576171875	667.7417602539063	676.0767211914063	1363.516845703125	705.8060913085938	790.5784912109375	1413.108276367188	661.166748046875	785.6459350585938	1360.445068359375	779.9371337890625	464.7336730957031	1371.061401367188	
114	0.7533333333333334	708.8615112304688	102.7079467773438	1034.65234375	735.044677734375	122.0109405517578	1117.455444335938	832.5009765625	1063.74755859375	1125.642822265625	767.7620849609375	977.0689697265625	1062.943237304688	639.4348754882813	41.3469123840332	1077.961303710938	668.7818603515625	61.47998046875	1039.50341796875	649.9171142578125	87.69365692138672	1080.158447265625	713.0863037109375	481.4745178222656	1033.893432617188	751.0516357421875	1125.866943359375	1073.40625	725.5365600585938	553.1207275390625	1046.3125	716.9929809570313	529.235595703125	1164.314208984375	860.6767578125	53.48207855224609	1126.31982421875	872.4907836914063	69.56191253662109	1082.889404296875	834.924560546875	45.15183639526367	1010.433410644531	648.0885620117188	1079.968627929688	1173.830688476563	714.5089111328125	178.8267517089844	1030.4306640625	672.185791015625	171.5010223388672	1058.255249023438	697.7526245117188	257.9736328125	1019.482299804688	655.5172119140625	254.8246917724609	1050.57177734375	735.7957153320313	713.0581665039063	1031.431518554688	674.8546142578125	714.1575927734375	1069.3359375	735.2862548828125	823.3792114257813	1033.7529296875	680.0216064453125	824.358154296875	1073.70458984375	772.1138916015625	462.8030700683594	1081.518676757813	698.580078125	105.0886001586914	1420.076293945313	731.392822265625	123.1303024291992	1339.952514648438	827.2197875976563	1067.97802734375	1341.250854492188	747.9232177734375	970.4472045898438	1402.791015625	632.3564453125	40.75018692016602	1373.79931640625	662.1660766601563	58.54120254516602	1416.929931640625	642.5752563476563	87.94478607177734	1373.413330078125	726.1319580078125	492.9775695800781	1416.464599609375	740.7549438476563	1139.866577148438	1379.9775390625	727.979248046875	558.921875	1409.75341796875	742.4669799804688	538.7708129882813	1291.599243164063	854.3305053710938	53.78505706787109	1331.431884765625	863.0018920898438	71.00318908691406	1376.094360351563	829.0498046875	47.39426422119141	1447.172607421875	645.6385498046875	1086.180786132813	1282.543823242188	708.50146484375	185.6763305664063	1426.298095703125	662.3496704101563	184.8652954101563	1395.232788085938	698.3666381835938	265.6704406738281	1437.265380859375	653.9503173828125	264.1886901855469	1406.244506835938	716.8306274414063	681.458740234375	1418.213134765625	667.750732421875	676.0825805664063	1363.523559570313	705.8157958984375	790.574462890625	1413.106323242188	661.1825561523438	785.652099609375	1360.442504882813	779.9541015625	464.7388000488281	1371.064575195313	
115	0.76	708.8614501953125	102.7103042602539	1034.646728515625	735.0277709960938	121.9032974243164	1117.498168945313	832.5289306640625	1063.745361328125	1125.644653320313	767.7868041992188	977.086181640625	1062.931640625	639.4424438476563	41.34676361083984	1077.948974609375	668.7742919921875	61.48307037353516	1039.512817382813	649.9210205078125	87.69609069824219	1080.148071289063	713.1015014648438	481.4782104492188	1033.8935546875	751.078369140625	1125.878540039063	1073.400756835938	725.5538940429688	553.1342163085938	1046.311645507813	717.0029907226563	529.237548828125	1164.3203125	860.6851806640625	53.49228286743164	1126.318481445313	872.49267578125	69.56156921386719	1082.887451171875	834.9263305664063	45.15297317504883	1010.435424804688	648.1188354492188	1079.964599609375	1173.82763671875	714.5221557617188	178.8399505615234	1030.430419921875	672.18896484375	171.4979553222656	1058.258666992188	697.759521484375	257.9759216308594	1019.483032226563	655.523193359375	254.830078125	1050.571411132813	735.8092041015625	713.068359375	1031.427368164063	674.86767578125	714.1544189453125	1069.344604492188	735.315185546875	823.3799438476563	1033.754150390625	680.0482788085938	824.365234375	1073.700561523438	772.1063232421875	462.79443359375	1081.516479492188	698.5763549804688	105.0987930297852	1420.081176757813	731.3917236328125	123.1359939575195	1339.941162109375	827.252197265625	1067.98291015625	1341.24560546875	747.9402465820313	970.4541625976563	1402.808471679688	632.3553466796875	40.76123809814453	1373.802001953125	662.1723022460938	58.54524230957031	1416.925048828125	642.5714721679688	87.94709014892578	1373.404052734375	726.1439208984375	492.976318359375	1416.46630859375	740.779541015625	1139.874877929688	1379.98046875	727.9901123046875	558.9181518554688	1409.754516601563	742.4703979492188	538.7742309570313	1291.603271484375	854.330810546875	53.79705810546875	1331.434326171875	862.9976196289063	70.99828338623047	1376.086547851563	829.0529174804688	47.3985481262207	1447.164916992188	645.6649169921875	1086.183959960938	1282.539916992188	708.5014038085938	185.6858215332031	1426.300903320313	662.3499145507813	184.8658447265625	1395.241943359375	698.37744140625	265.6773071289063	1437.269897460938	653.9450073242188	264.1927185058594	1406.238647460938	716.8380737304688	681.46533203125	1418.208984375	667.7662963867188	676.0787353515625	1363.51953125	705.8377075195313	790.5807495117188	1413.100341796875	661.2092895507813	785.6524047851563	1360.439208984375	779.953125	464.7401428222656	1371.058227539063	
116	0.7666666666666667	708.8628540039063	102.7138748168945	1034.648315429688	735.045166015625	122.0163497924805	1117.461547851563	832.552490234375	1063.737548828125	1125.650024414063	767.8078002929688	977.0827026367188	1062.940185546875	639.4387817382813	41.34588623046875	1077.963745117188	668.7796020507813	61.48138046264648	1039.512573242188	649.9310302734375	87.69208526611328	1080.1630859375	713.101806640625	481.4797973632813	1033.89404296875	751.1209106445313	1125.859130859375	1073.399536132813	725.557861328125	553.1309814453125	1046.32177734375	717.0123901367188	529.2421875	1164.326171875	860.6702270507813	53.53996658325195	1126.373779296875	872.485595703125	69.55767059326172	1082.890625	834.9268798828125	45.14492416381836	1010.441284179688	648.137451171875	1079.97119140625	1173.830932617188	714.5146484375	178.8341522216797	1030.43359375	672.1882934570313	171.5104217529297	1058.2578125	697.7706298828125	257.9789123535156	1019.476013183594	655.5247802734375	254.8260040283203	1050.585083007813	735.8318481445313	713.0477905273438	1031.435302734375	674.8854370117188	714.156982421875	1069.3466796875	735.329833984375	823.3805541992188	1033.768310546875	680.0595092773438	824.3673706054688	1073.707641601563	772.1406860351563	462.7997436523438	1081.508056640625	698.58154296875	105.090446472168	1420.082641601563	731.39794921875	123.1313629150391	1339.953125	827.279052734375	1067.980590820313	1341.251953125	747.9569702148438	970.4481201171875	1402.806762695313	632.3584594726563	40.76197814941406	1373.801635742188	662.1690063476563	58.54397964477539	1416.931762695313	642.5836791992188	87.94066619873047	1373.404174804688	726.1624145507813	492.9766845703125	1416.463256835938	740.8002319335938	1139.875	1379.992065429688	728.006103515625	558.9237670898438	1409.751953125	742.4979248046875	538.7754516601563	1291.605712890625	854.3312377929688	53.78534317016602	1331.433837890625	863.0054931640625	71.00269317626953	1376.092041015625	829.0546875	47.39485168457031	1447.17333984375	645.6846313476563	1086.185791015625	1282.54345703125	708.5044555664063	185.6834869384766	1426.298828125	662.35302734375	184.8649139404297	1395.246704101563	698.3812255859375	265.6745910644531	1437.276000976563	653.953125	264.2020263671875	1406.247802734375	716.8516845703125	681.4659423828125	1418.21923828125	667.7736206054688	676.0855102539063	1363.529052734375	705.859130859375	790.5875244140625	1413.103881835938	661.222412109375	785.6571655273438	1360.445068359375	779.9647216796875	464.7323913574219	1371.0576171875	
